# xmcd
#
# Track frame offsets:
#	150
#	28498
#	49613
#	65842
#	83726
#	101759
#	115828
#	134786
#	159561
#	177562
#	199472
#	216109
#
# Disc length: 3107 seconds
#
# Revision: 0
# Processed by: cddbd v1.5.2PL0 Copyright (c) Steve Scherf et al.
# Submitted via: EasyCDDAExtractor 10.0.2.1
#
DISCID=bd0c210c
DTITLE=Billy Griffin - Like Water
DYEAR=2006
DGENRE=Soul
TTITLE0=Like Water
TTITLE1=All The Way To Love
TTITLE2=Forgive Me If You Can
TTITLE3=Livin' Deja Vu
TTITLE4=Oxygen
TTITLE5=Weak
TTITLE6=Be Unto Me A Lady
TTITLE7=Oblivion
TTITLE8=It's Bad Karma
TTITLE9=Joy And Happiness
TTITLE10=Sincerity
TTITLE11=Like Water (Reprise)
EXTD=
EXTT0=
EXTT1=
EXTT2=
EXTT3=
EXTT4=
EXTT5=
EXTT6=
EXTT7=
EXTT8=
EXTT9=
EXTT10=
EXTT11=
PLAYORDER=
